<svg viewBox="0 0 370.15384615384613 62.7564953943545" preserveAspectRatio="xMidYMid meet" class="css-13yxfcf" id="cbdgffaa" style="overflow: visible;" xmlns="http://www.w3.org/2000/svg"><defs id="SvgjsDefs1011"></defs><g id="SvgjsG1012" featurekey="symbolFeature-0" transform="matrix(0.6972943932706056,0,0,0.6972943932706056,-4.178174776461502,0)" fill="#111"><g xmlns="http://www.w3.org/2000/svg"><path fill="#111" d="M80.4,52.6l-3.1-5.4c-0.7,4.9-2.7,8.5-5.1,8.5v-24c1,0,1.9,0.6,2.6,1.6V28c0-15.5-12.5-28-28-28h-4.6   c-15.5,0-28,12.5-28,28v5.4c0.8-1,1.7-1.6,2.6-1.6v24c-2.4,0-4.4-3.6-5.1-8.5l-3.1,5.4C3,62.9,6.7,71.6,17,73.8   C21.4,83.4,31.1,90,42.3,90h4.6c11.2,0,20.9-6.6,25.4-16.2C82.6,71.6,86.3,62.9,80.4,52.6z M45.4,83.8h-1.6   c-5.7,0-10.3-4.6-10.3-10.3v-5.8c3.6-0.8,7.3-3.1,11-3.1c3.7,0,7.4,2.3,11.1,3.1v5.8C55.7,79.2,51.1,83.8,45.4,83.8z M66.7,50.3   c0,6.7-4.2,12.3-10.2,14.5c-0.5-0.8-1.5-1.6-2.4-1.8c-6.3-1.1-12.7-1.1-19,0c-0.9,0.2-1.9,0.9-2.4,1.7c-5.9-2.2-10-7.8-10-14.5   V34.8c0-4.9,5.6-9,12.4-9c3.9,0,7.3,1.3,9.6,3.3c2.3-2,5.7-3.3,9.6-3.3c6.8,0,12.4,4,12.4,9V50.3z"></path><path fill="#111" d="M42.5,49c-2-1.3-3.9-1-4.2,0.8c-0.4,1.7,1.3,2.8,3.6,2.4C44.2,51.7,44.5,50.3,42.5,49z"></path><path fill="#111" d="M46.9,49c-2,1.3-1.7,2.7,0.6,3.2c2.3,0.4,3.9-0.6,3.6-2.4C50.7,48.1,48.8,47.7,46.9,49z"></path><path fill="#111" d="M33.5,35.9c-3.1,0-5.6,2.5-5.6,5.6H39C39,38.4,36.5,35.9,33.5,35.9z"></path><path fill="#111" d="M55.7,35.9c-3.1,0-5.6,2.5-5.6,5.6h11.1C61.3,38.4,58.8,35.9,55.7,35.9z"></path></g></g><g id="SvgjsG1013" featurekey="K5GtsI-0" transform="matrix(1.9693698399905737,0,0,1.9693698399905737,72.03062969047507,5.971528144797812)" fill="#111"><path d="M13.18 20.02 l0 -10.16 l-4.56 6.08 l-0.52 0 l-4.46 -6.1 l0 10.18 l-2.64 0 l0 -14 l3.04 0 l4.38 6.02 l4.38 -6.02 l3.02 0 l0 14 l-2.64 0 z M28.740000000000002 17.4 l0 2.6 l-10.48 0 l0 -14 l10.48 0 l0 2.56 l-7.86 0 l0 3.22 l7.58 0 l0 2.46 l-7.58 0 l0 3.16 l7.86 0 z M42.980000000000004 20.02 l0 -10.16 l-4.56 6.08 l-0.52 0 l-4.46 -6.1 l0 10.18 l-2.64 0 l0 -14 l3.04 0 l4.38 6.02 l4.38 -6.02 l3.02 0 l0 14 l-2.64 0 z M58.540000000000006 17.4 l0 2.6 l-10.48 0 l0 -14 l10.48 0 l0 2.56 l-7.86 0 l0 3.22 l7.58 0 l0 2.46 l-7.58 0 l0 3.16 l7.86 0 z M76.82000000000001 20.02 l0 -10.16 l-4.56 6.08 l-0.52 0 l-4.46 -6.1 l0 10.18 l-2.64 0 l0 -14 l3.04 0 l4.38 6.02 l4.38 -6.02 l3.02 0 l0 14 l-2.64 0 z M88.52000000000001 5.720000000000001 c4.82 0 7.22 3.7 7.18 7.36 c-0.04 3.62 -2.26 7.24 -7.18 7.24 s-7.2 -3.54 -7.2 -7.22 s2.36 -7.38 7.2 -7.38 z M88.52000000000001 8.12 c-3.3 0 -4.66 2.66 -4.6 5.02 c0.06 2.3 1.3 4.76 4.6 4.76 s4.54 -2.48 4.58 -4.78 c0.04 -2.36 -1.28 -5 -4.58 -5 z M106.84 14.68 l0 -8.7 l2.64 0 l0 14.02 l-1.64 0 l0 0.02 l-7.36 -9.46 l0 9.44 l-2.64 0 l0 -14 l2.14 0 z M123.94000000000001 7.74 l-1.64 1.68 c-0.94 -0.9 -2.34 -1.4 -3.56 -1.4 c-3 0 -4.82 2.28 -4.82 5.16 c0 2.3 1.34 4.68 4.82 4.68 c1.1 0 2.06 -0.24 3.16 -1.12 l0 -2.48 l-3.58 0 l0 -2.36 l6 0 l0 5.9 c-1.38 1.58 -3.12 2.52 -5.58 2.52 c-5.26 0 -7.4 -3.46 -7.4 -7.14 c0 -3.94 2.46 -7.58 7.4 -7.58 c1.88 0 3.76 0.72 5.2 2.14 z M136.92000000000002 17.4 l0 2.6 l-10.48 0 l0 -14 l10.48 0 l0 2.56 l-7.86 0 l0 3.22 l7.58 0 l0 2.46 l-7.58 0 l0 3.16 l7.86 0 z M151.38000000000002 19.82 l0 0.18 l-3.14 0 l-4.08 -4.68 l-2.54 0 l0 4.68 l-2.64 0 l0 -14.02 c2.22 0 4.44 0.02 6.66 0.02 c3.3 0.02 5.04 2.22 5.04 4.64 c0 1.92 -0.88 3.86 -3.54 4.4 z M145.64000000000001 8.46 l-4.02 0 l0 4.48 l4.02 0 c1.68 0 2.4 -1.12 2.4 -2.24 s-0.74 -2.24 -2.4 -2.24 z"></path></g></svg>